<?xml version="1.0" encoding="UTF-8" standalone="no"?>
<svg
   id="svg42"
   height="256"
   viewBox="0 0 67.73 67.73"
   width="256"
   version="1.1"
   sodipodi:docname="vera.svg"
   inkscape:version="1.2.2 (b0a8486541, 2022-12-01)"
   xmlns:inkscape="http://www.inkscape.org/namespaces/inkscape"
   xmlns:sodipodi="http://sodipodi.sourceforge.net/DTD/sodipodi-0.dtd"
   xmlns="http://www.w3.org/2000/svg"
   xmlns:svg="http://www.w3.org/2000/svg">
  <defs
     id="defs340">
    <filter
       id="b"
       x="-0.0116"
       y="-0.012428571"
       width="1.0232"
       height="1.0248571"
       color-interpolation-filters="sRGB">
      <feGaussianBlur
         stdDeviation="1.16"
         id="feGaussianBlur14" />
    </filter>
    <linearGradient
       id="d"
       x1="296"
       x2="296"
       y1="-212"
       y2="236"
       gradientUnits="userSpaceOnUse">
      <stop
         offset="0"
         stop-color="#fff"
         id="stop2" />
      <stop
         offset=".125"
         stop-color="#fff"
         stop-opacity=".098"
         id="stop4" />
      <stop
         offset=".925"
         stop-opacity=".098"
         id="stop6" />
      <stop
         offset="1"
         stop-opacity=".498"
         id="stop8" />
    </linearGradient>
    <clipPath
       id="c">
      <path
         d="M 361.938,-212 C 507.235,-212 528,-191.287 528,-46.125 V 70.125 C 528,215.286 507.235,236 361.937,236 H 214.063 C 68.766,236 48,215.286 48,70.125 V -46.125 C 48,-191.287 68.765,-212 214.063,-212 Z"
         fill="#8c59d9"
         id="path11" />
    </clipPath>
  </defs>
  <sodipodi:namedview
     id="namedview338"
     pagecolor="#ffffff"
     bordercolor="#000000"
     borderopacity="0.25"
     inkscape:showpageshadow="2"
     inkscape:pageopacity="0.0"
     inkscape:pagecheckerboard="0"
     inkscape:deskcolor="#d1d1d1"
     showgrid="false"
     showguides="true"
     inkscape:zoom="2.3450533"
     inkscape:cx="185.28363"
     inkscape:cy="143.28032"
     inkscape:window-width="1920"
     inkscape:window-height="1014"
     inkscape:window-x="0"
     inkscape:window-y="29"
     inkscape:window-maximized="1"
     inkscape:current-layer="svg42">
    <sodipodi:guide
       position="17.14873,33.771001"
       orientation="1,0"
       id="guide802"
       inkscape:locked="false" />
    <sodipodi:guide
       position="54.830809,48.324858"
       orientation="0,-1"
       id="guide804"
       inkscape:locked="false" />
    <sodipodi:guide
       position="49.753882,21.360736"
       orientation="1,0"
       id="guide806"
       inkscape:locked="false" />
    <sodipodi:guide
       position="42.307723,17.976118"
       orientation="0,-1"
       id="guide808"
       inkscape:locked="false" />
  </sodipodi:namedview>
  <linearGradient
     id="linearGradient4358"
     gradientUnits="userSpaceOnUse"
     x1="88"
     x2="488"
     y1="88"
     y2="488">
    <stop
       id="stop4362"
       offset="0"
       stop-opacity=".588235" />
    <stop
       id="stop4364"
       offset=".88"
       stop-opacity="0" />
    <stop
       id="stop4366"
       offset="1" />
  </linearGradient>
  <filter
     id="filter4380"
     color-interpolation-filters="sRGB"
     height="1.0908583"
     width="1.1156343"
     x="-0.057817147"
     y="-0.045429151">
    <feGaussianBlur
       id="feGaussianBlur4382"
       stdDeviation="8.4801079" />
  </filter>
  <filter
     id="filter4346"
     color-interpolation-filters="sRGB"
     height="1.0227146"
     width="1.0289086"
     x="-0.014454287"
     y="-0.011357288">
    <feGaussianBlur
       id="feGaussianBlur4348"
       stdDeviation="2.120027" />
  </filter>
  <path
     id="rect4158-9"
     d="m189.84323 74c-70.59344 0-78.18921 7.250835-77.84323 77.98706v146.01294 146.01294c-.34598 70.73623 7.24979 77.98706 77.84323 77.98706h196.31354c70.59344 0 76.00668-7.27384 77.84323-77.98706v-146.01294-146.01294c0-70.737067-7.24979-77.98706-77.84323-77.98706z"
     filter="url(#filter4346)"
     opacity=".1"
     transform="matrix(.13228516 0 0 .13228516 -4.409451 -6.038882)" />
  <path
     id="path4350"
     d="m189.84323 74c-70.59344 0-78.18921 7.250835-77.84323 77.98706v146.01294 146.01294c-.34598 70.73623 7.24979 77.98706 77.84323 77.98706h196.31354c70.59344 0 77.84323-7.24999 77.84323-77.98706v-146.01294-146.01294c0-70.737067-7.24979-77.98706-77.84323-77.98706z"
     fill="url(#linearGradient4358)"
     filter="url(#filter4380)"
     opacity=".3"
     transform="matrix(.13228516 0 0 .13228516 -4.409451 -6.038882)" />
  <path
     id="rect4158"
     d="m46.671928 3.4856494c9.338467 0 10.343273.959178 10.297505 10.3165306v19.315345 19.315344c.04577 9.357355-.959038 10.316531-10.297505 10.316531h-25.969365c-9.338463 0-10.297504-.959068-10.297504-10.316531v-19.315344-19.315345c0-9.3574636.959041-10.3165306 10.297504-10.3165306z"
     fill="#4b6d5d"
     style="fill:#212121;fill-opacity:1" />
  <path
     id="path4231"
     d="m33.688674 3.4856494v59.2637506h12.984614c9.338464 0 10.054627-.962123 10.297574-10.316435v-19.31544-19.315442c0-9.3574636-.95911-10.3164336-10.297574-10.3164336z"
     fill="#fff"
     opacity=".08" />
  <path
     id="path4255"
     d="m10.406486 33.117525v19.31544c-.04577 9.357354.959109 10.316435 10.297574 10.316435h25.969228c9.338464 0 10.054627-.962123 10.297574-10.316435v-19.31544z"
     fill="#fff"
     opacity=".08" />
  <path
     id="path4254"
     d="m41.096643 62.7494 15.874219-15.874219v5.948567c-.01384 8.994282-1.006077 9.925652-10.099734 9.925652z"
     fill="#fff"
     opacity=".08" />
  <path
     id="path945"
     d="m10.406486 51.903567v.529141c-.04577 9.357355.959107 10.316692 10.297574 10.316692h25.969228c9.338464 0 10.054627-.96238 10.297574-10.316692v-.529141c-.242947 9.354312-.95911 10.316692-10.297574 10.316692h-25.969228c-9.338467 0-10.343342-.959337-10.297574-10.316692z"
     opacity=".2" />
  <path
     id="path931"
     d="m20.70406 3.4856494c-9.338466 0-10.343342.95934-10.297574 10.3166916v.529141c-.04577-9.3573526.959108-10.3166916 10.297574-10.3166916h25.969228c9.338467 0 10.297574.959228 10.297574 10.3166916v-.529141c0-9.3574636-.959107-10.3166916-10.297574-10.3166916z"
     fill="#fff"
     opacity=".4" />
  <g
     id="g1043"
     transform="matrix(0.71743346,0,0,0.71743346,-23.020178,3.5384551)">
    <path
       d="m 58.907775,36.111646 -3.972,-6.874 7.94,-0.003 z"
       fill="#20acd9"
       id="path32-3" />
    <path
       d="m 58.905775,36.111646 3.97,-6.876 3.97,6.876 z"
       fill="#27a7d4"
       id="path34-6" />
    <path
       d="m 62.877775,42.988646 -3.972,-6.875 7.94,-0.002 z"
       fill="#259ed2"
       id="path36-7" />
    <path
       d="m 62.875775,42.987646 3.97,-6.876 3.97,6.876 z"
       fill="#2a8ece"
       id="path38-5" />
    <path
       d="m 66.847775,49.865646 -3.972,-6.875 7.94,-0.002 z"
       fill="#3088c8"
       id="path40-3" />
    <path
       d="m 66.844775,49.864646 3.97,-6.876 3.97,6.876 z"
       fill="#357abe"
       id="path42-5" />
    <path
       d="m 70.817775,56.741646 -3.972,-6.874 7.94,-0.003 z"
       fill="#3a6db3"
       id="path44-6" />
    <path
       d="m 70.814775,56.741646 3.97,-6.876 3.97,6.876 z"
       fill="#22697d"
       id="path46-2" />
    <path
       d="m 78.756775,56.741646 -3.972,-6.874 7.94,-0.003 z"
       fill="#3a9ab1"
       id="path48-9" />
    <path
       d="m 74.784775,49.864646 3.97,-6.876 3.97,6.876 z"
       fill="#3aa6ae"
       id="path50-1" />
    <path
       d="m 82.726775,49.863646 -3.972,-6.874 7.94,-0.002 z"
       fill="#3bacac"
       id="path52-2" />
    <path
       d="m 78.754775,42.987646 3.97,-6.876 3.97,6.876 z"
       fill="#3daaa0"
       id="path54-7" />
    <path
       d="m 86.695775,42.988646 -3.971,-6.875 7.94,-0.002 z"
       fill="#3faa8d"
       id="path56-0" />
    <path
       d="m 82.724775,36.111646 3.97,-6.876 3.97,6.876 z"
       fill="#40ab86"
       id="path58-9" />
    <path
       d="m 82.741775,49.857646 -3.971,-6.875 7.94,-0.002 z"
       fill="#2f6b54"
       id="path60-3" />
    <path
       d="m 78.770775,42.979646 3.97,-6.876 3.97,6.876 z"
       fill="#44b496"
       id="path62-6" />
    <path
       d="m 86.711775,42.980646 -3.971,-6.875 7.94,-0.002 z"
       fill="#52b89b"
       id="path64-0" />
    <path
       d="m 82.740775,36.103646 3.97,-6.876 3.97,6.876 z"
       fill="#5cba9d"
       id="path66-6" />
    <path
       d="m 90.681775,36.103646 -3.971,-6.874 7.94,-0.002 z"
       fill="#6fc0a6"
       id="path68-2" />
    <path
       d="m 90.650775,36.111646 3.97,-6.876 3.97,6.876 z"
       fill="#88c9b2"
       id="path70-6" />
    <path
       d="m 98.589775,36.103646 -3.968,-6.876 h 7.939995 z"
       fill="#99d0bb"
       id="path72-1" />
    <path
       d="m 82.721775,49.833646 4.008,-6.853 3.932,6.898 z"
       fill="#37a084"
       id="path74-8" />
    <path
       d="m 86.681775,56.732646 3.97,-6.876 3.97,6.876 z"
       fill="#35896c"
       id="path76-7" />
    <path
       d="m 94.622775,56.733646 -3.971,-6.875 7.94,-0.002 z"
       fill="#379b7f"
       id="path78-9" />
    <path
       d="m 94.621775,56.731646 3.97,-6.876 3.969995,6.876 z"
       fill="#3bad91"
       id="path80-2" />
    <path
       d="m 86.683775,56.733646 -3.972,-6.875 7.94,-0.002 z"
       fill="#368f74"
       id="path82-0" />
  </g>
</svg>
